<svg xmlns="http://www.w3.org/2000/svg" viewBox="0 0 5.6 6.12">
  <defs>
    <style>
      .cls-1 {
        fill: #484849;
      }
    </style>
  </defs>
  <title>Clip</title>
  <g id="Layer_2" data-name="Layer 2">
    <g id="Layer_1-2" data-name="Layer 1">
      <g id="Clip">
        <path class="cls-1" d="M5.1,5.63h0a1.63,1.63,0,0,0,0-2.28L2.23.45a1.57,1.57,0,0,0-1-.45A1.25,1.25,0,0,0,0,1.25H0a1.26,1.26,0,0,0,.37.89l2.5,2.5a.9.9,0,0,0,.66.26.89.89,0,0,0,.59-.26.87.87,0,0,0,0-1.24L2.2,1.48A.27.27,0,0,0,2,1.4a.26.26,0,0,0-.26.26.27.27,0,0,0,.08.19h0L3.75,3.77a.35.35,0,0,1,.1.25.36.36,0,0,1-.34.36.4.4,0,0,1-.27-.11L.74,1.77a.74.74,0,0,1-.22-.52h0A.74.74,0,0,1,1.26.52a1,1,0,0,1,.59.3l2.91,2.9a1.09,1.09,0,0,1,0,1.55h0a1.1,1.1,0,0,1-1.56,0h0L.77,2.88A.27.27,0,0,0,.58,2.8a.28.28,0,0,0-.26.28.36.36,0,0,0,.07.17h0L2.8,5.65A1.62,1.62,0,0,0,5.1,5.63Z"/>
      </g>
    </g>
  </g>
</svg>
