<svg xmlns="http://www.w3.org/2000/svg" viewBox="0 0 11.8 11.72">
  <defs>
    <style>
      .cls-1 {
        fill: #484849;
      }
    </style>
  </defs>
  <title>Asset 7</title>
  <g id="Layer_2" data-name="Layer 2">
    <g id="Layer_1-2" data-name="Layer 1">
      <g id="Layer_2-2" data-name="Layer 2">
        <g>
          <path class="cls-1" d="M7.09,10.71l-.29.06a.47.47,0,0,0-.38.55A.47.47,0,0,0,7,11.7l.35-.07a.48.48,0,0,0,.35-.58A.47.47,0,0,0,7.09,10.71Z"/>
          <path class="cls-1" d="M10.6,4.35a.47.47,0,0,0,.6.3.47.47,0,0,0,.3-.6l-.12-.34a.48.48,0,0,0-.62-.26.46.46,0,0,0-.26.61C10.53,4.16,10.57,4.25,10.6,4.35Z"/>
          <path class="cls-1" d="M8.63,10l-.25.16a.48.48,0,0,0-.18.65.67.67,0,0,0,.14.15.49.49,0,0,0,.51,0l.31-.19A.48.48,0,0,0,8.63,10Z"/>
          <path class="cls-1" d="M11.8,5.67a.48.48,0,0,0-1,0V6a.49.49,0,0,0,.2.4.62.62,0,0,0,.27.09A.48.48,0,0,0,11.8,6Z"/>
          <path class="cls-1" d="M10.52,8.78a.47.47,0,0,0-.66.1,2.11,2.11,0,0,1-.19.23.48.48,0,0,0,.05.67l0,0a.48.48,0,0,0,.63-.08,3.25,3.25,0,0,0,.23-.29A.47.47,0,0,0,10.52,8.78Z"/>
          <path class="cls-1" d="M11.22,7.07a.46.46,0,0,0-.59.31l-.1.28a.47.47,0,0,0,.17.56l.1,0A.47.47,0,0,0,11.41,8a2.3,2.3,0,0,0,.12-.34A.46.46,0,0,0,11.22,7.07Z"/>
          <path class="cls-1" d="M5,10.77a4.61,4.61,0,0,1-1.21-.38h0l-.27-.14h0A4.57,4.57,0,0,1,3.05,10a4.94,4.94,0,0,1,0-8.11h0a5,5,0,0,1,5.56-.05l-.38.54c-.1.15,0,.26.15.24L10,2.42a.28.28,0,0,0,.24-.35L9.83.51c-.05-.17-.17-.19-.27,0L9.19,1A5.88,5.88,0,0,0,4.89.09L4.44.18h0A5.83,5.83,0,0,0,1.18,2.36l0,0a1,1,0,0,0-.08.11L1,2.68v0A5.78,5.78,0,0,0,0,6.16H0c0,.12,0,.24,0,.36v0c0,.12,0,.24,0,.36a5.84,5.84,0,0,0,1.65,3.17h0a5.69,5.69,0,0,0,.75.63,5.86,5.86,0,0,0,2.36,1A.48.48,0,1,0,5,10.77Z"/>
          <path class="cls-1" d="M5.61,2.07a.38.38,0,0,0-.38.38V6.28l3.49,1.8a.41.41,0,0,0,.18.05.39.39,0,0,0,.18-.73L6,5.81V2.45A.38.38,0,0,0,5.61,2.07Z"/>
        </g>
      </g>
    </g>
  </g>
</svg>
