<svg xmlns="http://www.w3.org/2000/svg" viewBox="0 0 22.32 20.41">
  <defs>
    <style>
      .cls-1 {
        fill: #f0bc5e;
      }

      .cls-2 {
        fill: #303030;
      }
    </style>
  </defs>
  <title>Asset 23</title>
  <g id="Layer_2" data-name="Layer 2">
    <g id="Layer_1-2" data-name="Layer 1">
      <g>
        <path class="cls-1" d="M11.16,1.45a8.75,8.75,0,1,0,8.75,8.75,8.75,8.75,0,0,0-8.75-8.75Zm0,15.68a6.93,6.93,0,1,1,6.91-6.94h0a6.93,6.93,0,0,1-6.91,6.93Z"/>
        <path class="cls-2" d="M11.16.73a9.46,9.46,0,0,1,9.42,8.42l.08.76,1.66-1.67-.51-.51-.62.61A10.18,10.18,0,0,0,11.16,0a6.35,6.35,0,0,0-.76,0l.06.72Z"/>
        <path class="cls-2" d="M11.16,19.68a9.46,9.46,0,0,1-9.42-8.42l-.08-.76L0,12.16l.52.52.61-.61a10.19,10.19,0,0,0,10,8.34c.25,0,.52,0,.76,0l-.06-.73Z"/>
        <path class="cls-2" d="M11.16,2.91a7.27,7.27,0,1,0,7.27,7.27A7.28,7.28,0,0,0,11.16,2.91Zm.37,13.84V14.94H10.8v1.81a6.56,6.56,0,0,1-6.17-6.18h1.8V9.84H4.63A6.55,6.55,0,0,1,10.8,3.66v1.8h.73V3.66a6.55,6.55,0,0,1,6.18,6.17h-1.8v.74h1.8a6.57,6.57,0,0,1-6.18,6.18Z"/>
        <path class="cls-2" d="M11.53,9.18v-3H10.8v3a1.09,1.09,0,0,0-.66,1.39,1.1,1.1,0,0,0,2.06,0h1.52V9.84H12.2A1.12,1.12,0,0,0,11.53,9.18Zm-.37,1.39a.37.37,0,0,1-.37-.36.37.37,0,1,1,.74,0h0a.37.37,0,0,1-.36.37Z"/>
        <path class="cls-2" d="M8.82.27,9.53.13l.14.71L9,1Z"/>
        <path class="cls-2" d="M6.92.91,7.6.63l.27.68-.67.28Z"/>
        <path class="cls-2" d="M5.19,1.92l.6-.4.41.6-.6.41Z"/>
        <path class="cls-2" d="M3.69,3.24l.52-.51.51.51-.51.52Z"/>
        <path class="cls-2" d="M2.5,4.84l.4-.61.61.41-.41.6Z"/>
        <path class="cls-2" d="M1.59,6.63,1.87,6l.67.28-.27.68Z"/>
        <path class="cls-2" d="M1.08,8.58l.15-.72L1.94,8l-.14.72Z"/>
        <path class="cls-2" d="M12.65,19.57l.72-.14.14.71-.71.14Z"/>
        <path class="cls-2" d="M14.44,19.1l.67-.28.28.67-.67.28Z"/>
        <path class="cls-2" d="M16.13,18.29l.6-.41.41.61-.61.4Z"/>
        <path class="cls-2" d="M17.61,17.16l.51-.52.52.52-.52.52Z"/>
        <path class="cls-2" d="M18.84,15.77l.41-.6.6.4-.4.61Z"/>
        <path class="cls-2" d="M19.78,14.17l.28-.68.67.28-.28.68Z"/>
        <path class="cls-2" d="M20.39,12.41l.14-.71.71.14-.14.71Z"/>
      </g>
    </g>
  </g>
</svg>
