<svg xmlns="http://www.w3.org/2000/svg" viewBox="0 0 16.74 19.28">
  <defs>
    <style>
      .cls-1 {
        fill: #c9f3ff;
      }

      .cls-2 {
        fill: #ffb954;
      }

      .cls-3 {
        fill: #5a54e0;
      }

      .cls-4 {
        fill: #303030;
      }
    </style>
  </defs>
  <title>Asset 1</title>
  <g id="Layer_2" data-name="Layer 2">
    <g id="Layer_1-2" data-name="Layer 1">
      <g>
        <rect class="cls-1" x="4.88" y="6.8" width="6.91" height="5.05"/>
        <polygon class="cls-1" points="3.22 1.58 5.15 1.58 5.47 4.92 4.51 4.4 3.07 5.19 3.22 1.58"/>
        <polygon class="cls-2" points="15.79 1.57 15.79 2.8 5.48 2.97 5.48 1.57 2.78 1.57 2.78 2.97 1.15 2.97 0.41 2.14 0.41 0.79 1.15 0.29 3.43 0.29 15.79 0.29 15.79 1.57"/>
        <path class="cls-3" d="M1.55,2.63V19.28a1.58,1.58,0,0,1-1.14-.55V2.64Z"/>
        <g>
          <path class="cls-4" d="M6.76,9H8.69a.33.33,0,0,0,0-.65H6.76a.33.33,0,0,0,0,.65Z"/>
          <path class="cls-4" d="M16.74,2.87v14.8a1.63,1.63,0,0,1-1.62,1.61H1.55a1.57,1.57,0,0,1-1.14-.54,1.62,1.62,0,0,1-.41-1V1.29A1.29,1.29,0,0,1,1.29,0H16.41a.32.32,0,0,1,.32.32.32.32,0,0,1-.32.32H1.29a.66.66,0,0,0-.65.65v.32a.93.93,0,0,0,.87,1h.1a.31.31,0,0,1,.32.31h0V17.7a.32.32,0,0,1-.31.32H1.55a.32.32,0,0,1-.26-.32V3.19a1.74,1.74,0,0,1-.65-.26V17.7a1,1,0,0,0,.91,1H15.12a1,1,0,0,0,1-1V3.22H6.75a.32.32,0,0,1,0-.64H16.4A.33.33,0,0,1,16.74,2.87Z"/>
          <path class="cls-4" d="M16.09,1.58a.32.32,0,0,0-.32-.32H5.47a.32.32,0,0,0-.32.32h0V4.67l-.74-.74a.33.33,0,0,0-.45,0l-.74.74V1.58a.33.33,0,0,0-.32-.32H1.61a.33.33,0,0,0,0,.65h1V5.45a.3.3,0,0,0,.2.29.31.31,0,0,0,.35-.07l1-1,1,1a.33.33,0,0,0,.23.1.31.31,0,0,0,.13,0,.3.3,0,0,0,.19-.29V1.91h10a.33.33,0,0,0,.36-.28Z"/>
          <path class="cls-4" d="M11.91,6.41H4.83a.32.32,0,0,0-.32.32h0v5.15a.33.33,0,0,0,.32.33h7.08a.33.33,0,0,0,.32-.33V6.73a.32.32,0,0,0-.32-.32Zm-.32,5.15H5.15V7.06h6.43Z"/>
          <path class="cls-4" d="M10,9.63H6.76a.32.32,0,0,0,0,.64H10a.32.32,0,0,0,0-.64Z"/>
        </g>
      </g>
    </g>
  </g>
</svg>
