<svg xmlns="http://www.w3.org/2000/svg" width="56" height="48" viewBox="0 0 56 48">
  <g id="businessowener" transform="translate(-8.995 -8.89)">
    <path id="Path_1" data-name="Path 1" d="M44.09,35.858l-4.44-2.866a1.344,1.344,0,0,1-.52-1.132V30.14a11.117,11.117,0,0,0,2.46-7.279v-2.45a2.591,2.591,0,0,0,.81-1.992v-.244c-.006-5.125-2.9-9.278-6.48-9.285H34.28c-3.58,0-6.484,4.155-6.49,9.285v2.178a2.817,2.817,0,0,0,.61,1.834l.21.2v.473a11.183,11.183,0,0,0,2.451,7.28v1.747a1.338,1.338,0,0,1-.51,1.132L26.1,35.887a6.212,6.212,0,0,0-2.39,5.288V55.661a1.371,1.371,0,0,0,.219.779.671.671,0,0,0,.541.324c.425,0,.77-.494.77-1.1V41.145q-.007-.193,0-.387L27.29,43.7a3,3,0,0,1,.49,1.72V55.661c0,.609.345,1.1.77,1.1a.671.671,0,0,0,.541-.324,1.371,1.371,0,0,0,.219-.779V45.416a5.744,5.744,0,0,0-.94-3.267l-2.44-3.5a2.626,2.626,0,0,1,.78-.788l4.37-2.78,3.24,4.643V55.661c0,.609.345,1.1.77,1.1a.671.671,0,0,0,.541-.324,1.371,1.371,0,0,0,.219-.779V39.727l3.24-4.643,4.37,2.78a2.653,2.653,0,0,1,.79.788l-2.43,3.5a5.685,5.685,0,0,0-1,3.267V55.661c0,.609.345,1.1.77,1.1a.671.671,0,0,0,.541-.324,1.371,1.371,0,0,0,.219-.779V45.416a3.009,3.009,0,0,1,.5-1.72L45,40.759q.007.193,0,.387V55.661a1.312,1.312,0,0,0,.355,1.059.581.581,0,0,0,.82,0,1.312,1.312,0,0,0,.355-1.059V41.145a6.163,6.163,0,0,0-2.44-5.288Zm-9,1.863-2.84-4.084a4.67,4.67,0,0,0,.33-1.748v-.444a4.74,4.74,0,0,0,5,0v.444a4.675,4.675,0,0,0,.34,1.748Zm0-7.752c-2.761,0-5-3.208-5-7.165v-.43a4.8,4.8,0,0,0,1.39-1.29,1.442,1.442,0,0,0,0-1.548.62.62,0,0,0-1.08-.072,2.623,2.623,0,0,1-1.13.974h0a.244.244,0,0,1,0-.1V18.175c.027-3.929,2.258-7.093,5-7.093h1.64c2.723.039,4.923,3.192,4.95,7.093v.315c-4.58,1.3-6.88-1.146-7.65-2.25a.615.615,0,0,0-1.08,0,1.45,1.45,0,0,0,0,1.548,7.667,7.667,0,0,0,8,3.1v1.977c-.022,3.951-2.272,7.131-5.03,7.107Z" transform="translate(1.895)" fill="#f16d00"/>
    <path id="Path_2" data-name="Path 2" d="M22.78,28.835V26.392a9.939,9.939,0,0,0-2.6-7.089,6.749,6.749,0,0,0,.15-1.489,5.694,5.694,0,0,0-1.553-4.375,2.351,2.351,0,0,0-3.323,0A5.694,5.694,0,0,0,13.9,17.813a7.466,7.466,0,0,0,.14,1.489,9.995,9.995,0,0,0-2.6,7.089v2.443a10.083,10.083,0,0,0,2.46,6.94v2.517a1.435,1.435,0,0,1-.48,1.147l-2.65,1.981A5.368,5.368,0,0,0,9,45.709v9.9a1.4,1.4,0,0,0,.355,1.1.565.565,0,0,0,.82,0,1.4,1.4,0,0,0,.355-1.1V46.2l1.25,1.847a3.211,3.211,0,0,1,.49,1.787v5.779a1.4,1.4,0,0,0,.355,1.1.565.565,0,0,0,.82,0,1.4,1.4,0,0,0,.355-1.1V49.834a6.142,6.142,0,0,0-.94-3.4l-1.74-2.577h0a1.883,1.883,0,0,1,.36-.357l2.62-2.085a2.2,2.2,0,0,0,.38-.343l1.87,2.785V55.553a1.4,1.4,0,0,0,.355,1.1.565.565,0,0,0,.82,0,1.4,1.4,0,0,0,.355-1.1V43.921l1.87-2.785a1.878,1.878,0,0,0,.38.343l.73.551a.6.6,0,0,0,.34.119c.387.058.742-.322.828-.886a1.314,1.314,0,0,0-.488-1.333l-.73-.536a1.477,1.477,0,0,1-.48-1.162V35.775a10.078,10.078,0,0,0,2.45-6.94Zm-5.67-13.4c.933,0,1.69,1.127,1.69,2.517a3.212,3.212,0,0,1,0,.447,3.862,3.862,0,0,0-3.31,0,3.39,3.39,0,0,1,0-.447c-.028-1.379.694-2.535,1.62-2.591Zm0,4.87c2.286,0,4.14,2.761,4.14,6.166v.417c-1.875.876-3.919-.038-5.16-2.308a.77.77,0,0,0-.56-.462.654.654,0,0,0-.59.343,5.225,5.225,0,0,1-2,1.862c.027-3.394,1.891-6.116,4.17-6.091Zm0,21.61-1.76-2.636a5.435,5.435,0,0,0,.08-.908V36.951a3.86,3.86,0,0,0,3.37,0v1.4a5.435,5.435,0,0,0,.08.908Zm0-6.836c-2.292-.033-4.132-2.827-4.11-6.24V28.6a5.661,5.661,0,0,0,2.46-1.817,7.682,7.682,0,0,0,1.42,1.489,4.635,4.635,0,0,0,2.92,1.117,4.554,4.554,0,0,0,1.48-.253c-.112,3.3-1.95,5.888-4.17,5.868Z" fill="#f16d00"/>
    <path id="Path_3" data-name="Path 3" d="M59.43,30.36l-4.28-2.14a.85.85,0,0,1-.48-.78V26.36a4.85,4.85,0,0,0,1.63-3.63v-.87h.05a.76.76,0,0,0,.77-.76V19.46a4.86,4.86,0,0,0-4.85-4.85H50.63a4.86,4.86,0,0,0-4.85,4.85V21.1a.76.76,0,0,0,.76.76h.06v.87a4.85,4.85,0,0,0,1.63,3.63v1.08a.85.85,0,0,1-.48.78.77.77,0,0,0-.34,1,.75.75,0,0,0,.68.42.68.68,0,0,0,.34-.08,2,2,0,0,0,.38-.24l1.87,1.87V41.53a.77.77,0,0,0,.77.77.76.76,0,0,0,.76-.77V31.22l1.87-1.87a3,3,0,0,0,.38.24l4.14,2.07-1.25,1.26a3.18,3.18,0,0,0-.94,2.27v6.34a.76.76,0,0,0,.76.77.77.77,0,0,0,.77-.77V35.19A1.66,1.66,0,0,1,58.43,34l1.19-1.19a1.54,1.54,0,0,1,.06.43v8.29a.76.76,0,0,0,.76.77.77.77,0,0,0,.77-.77V33.24a3.22,3.22,0,0,0-1.78-2.88ZM47.31,20.17v-.71h0a3.32,3.32,0,0,1,3.32-3.32h1.64a3.32,3.32,0,0,1,3.32,3.32v.85a11.76,11.76,0,0,1-5.35-1.48.75.75,0,0,0-.43-.13.76.76,0,0,0-.54.22,4.92,4.92,0,0,1-1.96,1.25Zm4.14,9.66-1.77-1.77a2.51,2.51,0,0,0,.08-.62v-.16a4.91,4.91,0,0,0,3.38,0v.16a2.11,2.11,0,0,0,.08.62Zm0-3.78a3.32,3.32,0,0,1-3.32-3.32V21.5h0a6.42,6.42,0,0,0,1.79-1.1,13.52,13.52,0,0,0,4.85,1.38v.95A3.32,3.32,0,0,1,51.45,26.05Z" transform="translate(3.785 14.502)" fill="#f16d00"/>
  </g>
</svg>
