<svg xmlns="http://www.w3.org/2000/svg" viewBox="0 0 92.52 16.72">
  <defs>
    <style>
      .cls-1 {
        fill: #3a5b98;
      }
    </style>
  </defs>
  <title>Asset 36</title>
  <g id="Layer_2" data-name="Layer 2">
    <g id="Layer_1-2" data-name="Layer 1">
      <g>
        <polygon class="cls-1" points="0 1.41 9.95 1.41 9.95 3.95 2.89 3.95 2.89 7.9 8.64 7.9 8.64 10.41 2.89 10.41 2.89 16.37 0 16.37 0 1.41"/>
        <path class="cls-1" d="M16.85,15.1a3.91,3.91,0,0,1-3.11,1.62,3.19,3.19,0,0,1-3.42-3.11c0-2,1.48-3.75,6.53-3.92V9.43c0-1.49-.62-2.11-2.2-2.11A8,8,0,0,0,11,8.49l-.57-2.22A9.11,9.11,0,0,1,15,5c3.4,0,4.72,1.5,4.64,4.54v4c0,.84.15,1,1,1l-.22,2.12c-2.11.24-3.09-.4-3.49-1.5Zm0-3.93c-2.75.34-3.76.89-3.76,2.06a1.48,1.48,0,0,0,1.66,1.44,2.82,2.82,0,0,0,2.1-1Z"/>
        <path class="cls-1" d="M27.23,16.72c-3.59,0-5.72-2.22-5.72-5.83A5.52,5.52,0,0,1,27.32,5a7.41,7.41,0,0,1,3.81.93l-.6,2.27a5.68,5.68,0,0,0-3-.88c-2,0-3.14,1.39-3.14,3.51s1.27,3.57,3.14,3.57a5.65,5.65,0,0,0,3.06-.86l.46,2.29a7.64,7.64,0,0,1-3.83.91"/>
        <path class="cls-1" d="M34.85,11.46a3.08,3.08,0,0,0,3.3,3,6.82,6.82,0,0,0,3.45-1L42,15.81a8.59,8.59,0,0,1-4,.91c-3.54,0-5.88-2.24-5.88-5.76s2.39-6,5.69-6a4.16,4.16,0,0,1,4.55,4.47,7.45,7.45,0,0,1-.24,1.84l-7.23.1Zm4.81-1.75V9.52C39.66,8,39,7.1,37.56,7.1a2.73,2.73,0,0,0-2.64,2.64Z"/>
        <path class="cls-1" d="M49.49,16.7A8.81,8.81,0,0,1,47,16.32l-2.71.4V.38L47.15,0V6.39A4.41,4.41,0,0,1,50.23,5c2.92,0,4.84,2.36,4.84,5.76a5.61,5.61,0,0,1-5.58,6m-.07-9.36a3.3,3.3,0,0,0-2.27.91v5.58a3.32,3.32,0,0,0,2.08.62c1.89,0,3-1.53,3-3.59s-1-3.52-2.78-3.52"/>
        <path class="cls-1" d="M62,16.72c-3.23,0-5.57-2.2-5.57-5.86A5.54,5.54,0,0,1,62.13,5c3.25,0,5.57,2.25,5.57,5.89A5.54,5.54,0,0,1,62,16.72M62,7.23c-1.84,0-2.85,1.48-2.85,3.61s1,3.59,2.9,3.59S64.9,13,64.9,10.86,63.85,7.23,62,7.23"/>
        <path class="cls-1" d="M74.64,16.72c-3.23,0-5.57-2.2-5.57-5.86A5.54,5.54,0,0,1,74.79,5C78,5,80.36,7.2,80.36,10.84a5.54,5.54,0,0,1-5.72,5.88m0-9.49c-1.84,0-2.85,1.48-2.85,3.61s1.06,3.59,2.9,3.59,2.82-1.44,2.82-3.57-1-3.63-2.87-3.63"/>
        <polygon class="cls-1" points="85.13 11.05 85.13 16.37 82.31 16.37 82.31 0.38 85.13 0 85.13 10.24 85.18 10.24 89.13 5.34 92.5 5.34 87.93 10.57 92.52 16.37 89.15 16.37 85.18 11.05 85.13 11.05"/>
      </g>
    </g>
  </g>
</svg>
