<svg xmlns="http://www.w3.org/2000/svg" viewBox="0 0 64.08 21.01">
  <defs>
    <style>
      .cls-1 {
        fill: #577fbf;
      }

      .cls-2 {
        fill: #da3236;
      }

      .cls-3 {
        fill: #f2c117;
      }

      .cls-4 {
        fill: #43b553;
      }
    </style>
  </defs>
  <title>Asset 35</title>
  <g id="Layer_2" data-name="Layer 2">
    <g id="Layer_1-2" data-name="Layer 1">
      <g>
        <path id="path2998" class="cls-1" d="M15.75,7.42H8.28V9.64h5.3c-.26,3.11-2.85,4.44-5.29,4.44A5.83,5.83,0,0,1,2.43,8.17,5.84,5.84,0,0,1,8.29,2.22a5.74,5.74,0,0,1,4,1.61l1.55-1.61A7.89,7.89,0,0,0,8.21,0,8.28,8.28,0,0,0,0,8.13,8.26,8.26,0,0,0,8.33,16.3a7.18,7.18,0,0,0,7.56-7.41,6.45,6.45,0,0,0-.14-1.47Z"/>
        <path id="path3000" class="cls-2" d="M21.88,5.81A5.18,5.18,0,0,0,16.61,11a5.27,5.27,0,0,0,10.53.06,5.14,5.14,0,0,0-5.26-5.26Zm0,2.06a3,3,0,0,1,2.94,3.19,3,3,0,1,1-5.94,0,3,3,0,0,1,3-3.17Z"/>
        <path id="path3005" class="cls-3" d="M33.33,5.81A5.17,5.17,0,0,0,28.07,11a5.26,5.26,0,0,0,10.52.06,5.14,5.14,0,0,0-5.26-5.26Zm0,2.06a3,3,0,0,1,2.94,3.19,3,3,0,1,1-5.94,0,3,3,0,0,1,3-3.17Z"/>
        <path id="path3007" class="cls-1" d="M44.57,5.82a5.18,5.18,0,0,0-5,5.23,5.16,5.16,0,0,0,5,5.25A3.45,3.45,0,0,0,47.39,15v1A2.63,2.63,0,0,1,44.64,19,2.9,2.9,0,0,1,42,17.08l-2,.84A5,5,0,0,0,44.65,21c2.8,0,4.94-1.76,4.94-5.46V6.13h-2.2V7a3.69,3.69,0,0,0-2.82-1.2Zm.2,2.05a3,3,0,0,1,2.8,3.19,2.93,2.93,0,0,1-2.83,3.18,3,3,0,0,1-2.9-3.16,3,3,0,0,1,2.93-3.21Z"/>
        <path id="path3011" class="cls-2" d="M59.35,5.81A5,5,0,0,0,54.47,11a5.06,5.06,0,0,0,5.14,5.25A5.32,5.32,0,0,0,64,14l-1.81-1.21a2.94,2.94,0,0,1-2.57,1.44,2.69,2.69,0,0,1-2.57-1.59l7-2.91-.37-.85a4.73,4.73,0,0,0-4.36-3.07Zm.1,2a2.08,2.08,0,0,1,1.93,1.12l-4.69,2a2.91,2.91,0,0,1,2.76-3.08Z"/>
        <path id="path3015" class="cls-4" d="M51.12,16h2.31V.54H51.12Z"/>
      </g>
    </g>
  </g>
</svg>
