<svg xmlns="http://www.w3.org/2000/svg" width="50" height="50" viewBox="0 0 50 50">
  <g id="housewife" transform="translate(-135 -195)">
    <path id="Path_6" data-name="Path 6" d="M45.075,31.035a55.779,55.779,0,0,0-7.317-2.1c-.025-.007-.05-.013-.076-.019-1.336-.286-4.545-.789-4.639-.8-1.08-.143-1.864-.821-1.864-1.611v-.835a18.035,18.035,0,0,0,1.871-.887c2.32-1.273,5.086-3.523,5.086-7.009l0-.418a5.4,5.4,0,0,0,1.912-.34v10.1c0,.4.457.732,1.02.732s1.02-.328,1.02-.732V9.209c0-2.581-1.522-5.06-4.177-6.8A16.275,16.275,0,0,0,28.1.038L25.853.185a13.119,13.119,0,0,1-1.706,0L21.9.038a16.275,16.275,0,0,0-9.81,2.37C9.432,4.149,7.91,6.627,7.91,9.209V27.117c0,.4.456.732,1.02.732s1.02-.328,1.02-.732v-10.1a5.4,5.4,0,0,0,1.912.34l0,.415c0,3.489,2.766,5.739,5.086,7.012a18.034,18.034,0,0,0,1.871.887V26.5c0,.791-.784,1.469-1.863,1.612-.251.033-4.012.654-5.346.957l-.05.012a55.512,55.512,0,0,0-6.637,1.952C1.887,32.142,0,34.35,0,36.8V48.044C0,49.123,1.222,50,2.723,50H47.276c1.5,0,2.724-.877,2.724-1.956V36.8c0-2.447-1.887-4.654-4.924-5.762Zm-8.7-.866v5.119H34.4V29.811c.661.108,1.319.227,1.966.357ZM16.946,32.291a32.426,32.426,0,0,0,7.842.887,32.956,32.956,0,0,0,7.576-.822v2.931H16.946Zm21.2-16.4.02-3.654c1.026,0,1.885.6,1.885,1.337v.979c0,.737-.878,1.337-1.9,1.337ZM13.462,3.49A13.682,13.682,0,0,1,21.712,1.5l2.25.147a15.983,15.983,0,0,0,2.077,0L28.289,1.5A13.687,13.687,0,0,1,36.539,3.49a7.011,7.011,0,0,1,3.512,5.719v1.9a5.211,5.211,0,0,0-1.877-.34l0-.319c0-.384-.41-.7-.943-.733A25.106,25.106,0,0,1,26.058,6.055a2,2,0,0,0-2.115,0C19.13,9.325,12.83,9.714,12.768,9.718c-.534.029-.946.349-.943.733l0,.319a5.21,5.21,0,0,0-1.877.34v-1.9A7.01,7.01,0,0,1,13.462,3.49Zm-1.609,12.4c-1.026,0-1.9-.6-1.9-1.337v-.979c0-.737.859-1.337,1.885-1.337Zm2.05,1.878-.036-6.673A27.167,27.167,0,0,0,25,7.348a27.165,27.165,0,0,0,11.132,3.745L36.1,17.769c0,2.89-2.33,4.776-4.285,5.848A16.5,16.5,0,0,1,25,25.6a16.5,16.5,0,0,1-6.812-1.984c-1.955-1.072-4.285-2.958-4.285-5.851Zm3.423,11.788c2.048-.271,3.534-1.554,3.534-3.052v-.129a16.556,16.556,0,0,0,4.117.692h.044a16.563,16.563,0,0,0,4.118-.692V26.5c0,1.421,1.338,2.65,3.225,3V30.8a28.918,28.918,0,0,1-7.576.915,28.751,28.751,0,0,1-7.842-.992V29.606l.381-.052Zm-2.421,5.733H12.94V30.311c.647-.138,1.3-.266,1.966-.382ZM8.264,45.8c-.563,0-1.02.328-1.02.732v2H2.723c-.377,0-.684-.22-.684-.491V36.8c0-1.892,1.459-3.6,3.808-4.455A52.557,52.557,0,0,1,10.9,30.788v6.4c0,.789-1.191,1.625-2.3,2.069a1.914,1.914,0,0,0-1.358,1.666v2.2c0,.4.456.732,1.02.732s1.02-.328,1.02-.732v-2.2a.442.442,0,0,1,.312-.387,8.152,8.152,0,0,0,2.151-1.258,2.857,2.857,0,0,0,1.193-2.09v-.439H36.372v.439a2.857,2.857,0,0,0,1.193,2.09,8.159,8.159,0,0,0,2.15,1.258.443.443,0,0,1,.313.387v7.609H9.284v-2c0-.4-.457-.733-1.02-.733Zm39.7,2.24c0,.271-.307.491-.684.491H42.068V40.926A1.915,1.915,0,0,0,40.71,39.26c-1.107-.443-2.3-1.28-2.3-2.069V30.619a52.763,52.763,0,0,1,5.741,1.722C46.5,33.2,47.961,34.9,47.961,36.8Zm0,0" transform="translate(135 195)" fill="#f16d00"/>
  </g>
</svg>
