<svg xmlns="http://www.w3.org/2000/svg" viewBox="0 0 85.28 24.73">
  <defs>
    <style>
      .cls-1 {
        fill: #45535e;
      }

      .cls-2 {
        fill: #f8761f;
      }
    </style>
  </defs>
  <title>Asset 37</title>
  <g id="Layer_2" data-name="Layer 2">
    <g id="Layer_1-2" data-name="Layer 1">
      <g>
        <path class="cls-1" d="M0,4.61H3v6.61H9.24V4.61h3V20.83h-3V14.08H3v6.75H0V4.61Z"/>
        <path class="cls-1" d="M21.64,15.54a2.46,2.46,0,1,1-4.92,0v-7H13.9v7a5.28,5.28,0,1,0,10.56,0v-7H21.64v7"/>
        <path class="cls-1" d="M32.33,8.64A4.3,4.3,0,0,0,29,10V4.61H26.19v9.94c0,3.73,2.69,6.28,5.71,6.28a6.2,6.2,0,0,0,6.31-6.09,6,6,0,0,0-5.88-6.1Zm.07,9.57a3.48,3.48,0,0,1,0-7,3.39,3.39,0,0,1,3.1,3.48,3.39,3.39,0,0,1-3.1,3.47Z"/>
        <path class="cls-1" d="M43,9.36a1.75,1.75,0,0,1,2-1.88,4.28,4.28,0,0,1,2.67,1.4l1.85-2.16a5.86,5.86,0,0,0-4.33-2.1c-3.07,0-5.28,1.78-5.28,4.74,0,5.48,6.74,3.74,6.74,6.81a1.93,1.93,0,0,1-2,1.78c-1.67,0-2.21-.81-3-1.67L39.58,18.4a6.07,6.07,0,0,0,4.87,2.42c2.91,0,5.26-1.81,5.26-4.63C49.71,10.1,43,12,43,9.36"/>
        <path class="cls-1" d="M57.15,8.49c-3,0-5.71,2.54-5.71,6.27v10h2.83V19.34a4.35,4.35,0,0,0,3.32,1.33,6,6,0,0,0,5.87-6.09,6.19,6.19,0,0,0-6.31-6.09Zm.51,9.56a3.48,3.48,0,0,1,0-7,3.39,3.39,0,0,1,3.09,3.48,3.39,3.39,0,0,1-3.09,3.47Z"/>
        <path class="cls-1" d="M84.28,18.21c-1.66,0-2.14-.72-2.14-1.83V11.49h2.6V9h-2.6V5.73L79.28,7V17c0,2.55,1.76,3.84,4.17,3.84a6.39,6.39,0,0,0,1.13-.09l.7-2.57c-.32,0-.68,0-1,0"/>
        <path class="cls-2" d="M76.82,11.63a6.15,6.15,0,0,0-2.26-2.24,5.9,5.9,0,0,0-2.28-.79v-3a2.19,2.19,0,0,0,1.35-2,2.25,2.25,0,1,0-4.5,0,2.15,2.15,0,0,0,1.32,2.05v3a6.3,6.3,0,0,0-2,.62l-8-6.07a2.33,2.33,0,0,0,.11-.65,2.52,2.52,0,1,0-1.22,2.13l.53.39,7.16,5.17a5.79,5.79,0,0,0-1,1.19,5.54,5.54,0,0,0-.92,3v.23a6.22,6.22,0,0,0,.39,2.16,5.5,5.5,0,0,0,.93,1.61l-2.38,2.39a1.84,1.84,0,0,0-.66-.12,1.91,1.91,0,0,0-1.93,1.93,1.93,1.93,0,0,0,1.93,1.93,1.95,1.95,0,0,0,1.93-1.93,1.85,1.85,0,0,0-.09-.58l2.46-2.46a6.35,6.35,0,0,0,1.09.6,6.43,6.43,0,0,0,2.56.53h.17a6.06,6.06,0,0,0,5.2-2.89,5.66,5.66,0,0,0,.89-3v-.06a5.91,5.91,0,0,0-.79-3Zm-3,5.16a3.15,3.15,0,0,1-2.3,1.2h-.15a3.09,3.09,0,0,1-1.45-.39,3.29,3.29,0,0,1-1.27-1.16,2.64,2.64,0,0,1-.53-1.58v-.17a3.19,3.19,0,0,1,.37-1.57,3.46,3.46,0,0,1,1.19-1.3,2.9,2.9,0,0,1,1.64-.49h.05a3.14,3.14,0,0,1,2.76,1.46,3.44,3.44,0,0,1,.55,1.55c0,.11,0,.23,0,.35a3.07,3.07,0,0,1-.87,2.1Z"/>
      </g>
    </g>
  </g>
</svg>
