<svg xmlns="http://www.w3.org/2000/svg" width="33.806" height="34.01" viewBox="0 0 33.806 34.01">
  <g id="student-jobseeker" transform="translate(-10.964 -10.21)">
    <path id="Path_1" data-name="Path 1" d="M42.77,10.21H19.13a2,2,0,0,0-2,2v2.25a.66.66,0,1,0,1.32,0V12.21a.67.67,0,0,1,.67-.67H42.77a.66.66,0,0,1,.66.67v30a.66.66,0,0,1-.66.67H19.13a.67.67,0,0,1-.67-.67V40.07a.66.66,0,0,0-1.32,0v2.15a2,2,0,0,0,2,2H42.77a2,2,0,0,0,2-2v-30a2,2,0,0,0-2-2.01Z" fill="#f16d00"/>
    <path id="Path_2" data-name="Path 2" d="M39.57,35.85H23.64a.66.66,0,0,0,0,1.32H39.57a.66.66,0,1,0,0-1.32Z" fill="#f16d00"/>
    <path id="Path_3" data-name="Path 3" d="M40,39.49a.67.67,0,0,0-.47-.19.65.65,0,0,0-.66.66.67.67,0,0,0,.66.67.68.68,0,0,0,.67-.67.67.67,0,0,0-.2-.47Z" fill="#f16d00"/>
    <path id="Path_4" data-name="Path 4" d="M36.86,39.3H23.64a.67.67,0,1,0,0,1.33H36.86a.67.67,0,0,0,0-1.33Z" fill="#f16d00"/>
    <path id="Path_5" data-name="Path 5" d="M28.29,16a7.16,7.16,0,0,0-4.91,12.38l.07.07a7.14,7.14,0,0,0,9.68,0l.08-.07A7.17,7.17,0,0,0,28.29,16Zm0,13a5.78,5.78,0,0,1-3.61-1.26,4.1,4.1,0,0,1,7.23,0,5.83,5.83,0,0,1-3.62,1.31Zm-1.4-6.16v-.51a1.4,1.4,0,0,1,2.8,0v.51a1.4,1.4,0,0,1-2.8,0Zm6,3.93a5.38,5.38,0,0,0-2.54-2.13,2.73,2.73,0,0,0,.68-1.8v-.51a2.73,2.73,0,1,0-5.46,0v.51a2.73,2.73,0,0,0,.68,1.8,5.38,5.38,0,0,0-2.54,2.13,5.84,5.84,0,1,1,9.18,0Z" fill="#f16d00"/>
    <path id="Path_6" data-name="Path 6" d="M28.29,12.87a10.34,10.34,0,0,0-6.38,18.47L14.2,39.05a1.24,1.24,0,0,1-1.75,0,1.26,1.26,0,0,1,0-1.76l3.94-3.94a.665.665,0,1,0-.94-.94l-3.94,4A2.57,2.57,0,0,0,15.14,40L23,32.1a10.23,10.23,0,0,0,5.26,1.45,10.34,10.34,0,1,0,0-20.68Zm0,19.35a9,9,0,1,1,9-9A9,9,0,0,1,28.29,32.22Z" fill="#f16d00"/>
    <path id="Path_7" data-name="Path 7" d="M18.48,30.32a.609.609,0,1,0,.2.47.67.67,0,0,0-.2-.47Z" fill="#f16d00"/>
  </g>
</svg>
