<svg xmlns="http://www.w3.org/2000/svg" width="38.131" height="32.921" viewBox="0 0 38.131 32.921">
  <g id="workingprofessional" transform="translate(-12.01 -6.75)">
    <path id="Path_1" data-name="Path 1" d="M48.4,24.94a.82.82,0,0,0-.86.87V37.07a.82.82,0,0,1-.87.87H15.48a.82.82,0,0,1-.87-.87V25.81a.87.87,0,1,0-1.73,0V37.07a2.56,2.56,0,0,0,2.6,2.6H46.67a2.56,2.56,0,0,0,2.6-2.6V25.81a.82.82,0,0,0-.87-.87Z" fill="#f16d00"/>
    <path id="Path_2" data-name="Path 2" d="M47.54,12.81H14.61a2.56,2.56,0,0,0-2.6,2.6V21a2.6,2.6,0,0,0,2,2.51l13.6,3v2.77a.82.82,0,0,0,.87.87h5.19a.82.82,0,0,0,.87-.87V26.5l13.6-3a2.6,2.6,0,0,0,2-2.51V15.41a2.56,2.56,0,0,0-2.6-2.6ZM32.81,28.41H29.34V24.94h3.47ZM48.4,21a.83.83,0,0,1-.69.86L34.54,24.77v-.7a.82.82,0,0,0-.87-.86H28.48a.82.82,0,0,0-.87.86v.7L14.44,21.82a.83.83,0,0,1-.69-.86V15.41a.82.82,0,0,1,.86-.87H47.54a.82.82,0,0,1,.86.87Z" fill="#f16d00"/>
    <path id="Path_3" data-name="Path 3" d="M35.41,6.75H26.74a2.55,2.55,0,0,0-2.6,2.6v.86a.87.87,0,0,0,1.74,0V9.35a.82.82,0,0,1,.86-.87h8.67a.82.82,0,0,1,.86.87v.86a.87.87,0,1,0,1.74,0V9.35a2.55,2.55,0,0,0-2.6-2.6Z" fill="#f16d00"/>
  </g>
</svg>
